<?xml version="1.0" encoding="UTF-8"?>
<svg id="Calque_2" xmlns="http://www.w3.org/2000/svg" version="1.1" viewBox="0 0 1366 768">
  <!-- Generator: Adobe Illustrator 29.8.1, SVG Export Plug-In . SVG Version: 2.1.1 Build 2)  -->
  <defs>
    <style>
      .st0 {
        fill: #2e7d32;
      }

      .st1, .st2 {
        fill: #fff;
      }

      .st2 {
        stroke: #000;
        stroke-miterlimit: 10;
        stroke-width: .25px;
      }
    </style>
  </defs>
  <rect class="st0" x="-262.89" y="-296.65" width="1890.29" height="1382.86"/>
  <polygon class="st1" points="763.59 285.61 717.1 319.39 717.1 503.58 763.59 533.14 763.59 285.61"/>
  <polygon class="st1" points="573.4 281.04 619.88 314.82 619.88 499.01 573.4 528.57 573.4 281.04"/>
  <rect class="st1" x="663.81" y="335.93" width="11.14" height="36.88"/>
  <rect class="st1" x="663.81" y="389.78" width="11.14" height="36.37"/>
  <rect class="st1" x="663.81" y="443.63" width="11.14" height="42.96"/>
  <path class="st2" d="M673.92,254.89l12.34,8.62s.54-2.75,2.53-1.94c1.99.81,1.94,1.99,1.56,2.8s-.32,1.13-.32,1.13l5.66,4.58.81-1.83s1.51-.54,2.26,0,1.08,1.35.92,1.83-.49,2.05-.49,2.05l8.03,6.14v6.63l-33.73-15.76-2.91,32.14s10.02,6.79,10.56,9.16-1.51,1.56-1.51,1.56l-10.99-5.71-13.53,4.9s-1.99-.48-.97-1.72c1.02-1.24,10.89-8.19,10.89-8.19l-.11-32.14-34.81,12.74s-.75-5.55,0-6.3,7.92-5.28,7.92-5.28c0,0-.11-2.48.32-3.02s1.51-.97,2.1-.92,1.62.7,1.83,1.62l6.52-4.26s-.54-1.72-.22-2.26,2.16-1.35,2.75-.92c.59.43.92,1.29.92,1.29l12.88-7.27-.11-13.14s.49-3.39,2.05-6.2,2.1-4.2,2.96-4.2,1.56,0,2.96,1.99c1.4,1.99,2.43,7.33,2.26,8.89s-1.35,12.98-1.35,12.98Z"/>
  <text/>
  <text/>
  <text/>
</svg>